HIERARCHY
ROOT Hips
{
  OFFSET -4.35178 90.3298 111.633
  CHANNELS 6 Xposition Yposition Zposition Zrotation Xrotation Yrotation
  JOINT LeftUpLeg
  {
    OFFSET 0.103456 1.85784 10.5485
    CHANNELS 6 Xposition Yposition Zposition Zrotation Xrotation Yrotation
    JOINT LeftLeg
    {
      OFFSET 43.5 -4.2e-05 0
      CHANNELS 6 Xposition Yposition Zposition Zrotation Xrotation Yrotation
      JOINT LeftFoot
      {
        OFFSET 42.3722 1.9e-05 0
        CHANNELS 6 Xposition Yposition Zposition Zrotation Xrotation Yrotation
        JOINT LeftToe
        {
          OFFSET 17.3 0 0
          CHANNELS 6 Xposition Yposition Zposition Zrotation Xrotation Yrotation
          End Site
          {
            OFFSET 0 0 0
          }
        }
      }
    }
  }
  JOINT RightUpLeg
  {
    OFFSET 0.103456 1.85782 -10.5485
    CHANNELS 6 Xposition Yposition Zposition Zrotation Xrotation Yrotation
    JOINT RightLeg
    {
      OFFSET 43.5 -2.7e-05 0
      CHANNELS 6 Xposition Yposition Zposition Zrotation Xrotation Yrotation
      JOINT RightFoot
      {
        OFFSET 42.3723 0 0
        CHANNELS 6 Xposition Yposition Zposition Zrotation Xrotation Yrotation
        JOINT RightToe
        {
          OFFSET 17.3 0 1.7e-05
          CHANNELS 6 Xposition Yposition Zposition Zrotation Xrotation Yrotation
          End Site
          {
            OFFSET 0 0 0
          }
        }
      }
    }
  }
  JOINT Spine
  {
    OFFSET 6.90197 -2.60373 0
    CHANNELS 6 Xposition Yposition Zposition Zrotation Xrotation Yrotation
    JOINT Spine1
    {
      OFFSET 12.5881 0 0
      CHANNELS 6 Xposition Yposition Zposition Zrotation Xrotation Yrotation
      JOINT Spine2
      {
        OFFSET 12.3432 -1.8e-05 0
        CHANNELS 6 Xposition Yposition Zposition Zrotation Xrotation Yrotation
        JOINT Neck
        {
          OFFSET 25.8329 2.3e-05 0
          CHANNELS 6 Xposition Yposition Zposition Zrotation Xrotation Yrotation
          JOINT Head
          {
            OFFSET 11.7666 0 0
            CHANNELS 6 Xposition Yposition Zposition Zrotation Xrotation Yrotation
            End Site
            {
              OFFSET 0 0 0
            }
          }
        }
        JOINT LeftShoulder
        {
          OFFSET 19.7459 -1.48035 6.0001
          CHANNELS 6 Xposition Yposition Zposition Zrotation Xrotation Yrotation
          JOINT LeftArm
          {
            OFFSET 11.2841 1.8e-05 -2e-05
            CHANNELS 6 Xposition Yposition Zposition Zrotation Xrotation Yrotation
            JOINT LeftForeArm
            {
              OFFSET 33 -1.3e-05 1.9e-05
              CHANNELS 6 Xposition Yposition Zposition Zrotation Xrotation Yrotation
              JOINT LeftHand
              {
                OFFSET 25.2 3.2e-05 1.1e-05
                CHANNELS 6 Xposition Yposition Zposition Zrotation Xrotation Yrotation
                End Site
                {
                  OFFSET 0 0 0
                }
              }
            }
          }
        }
        JOINT RightShoulder
        {
          OFFSET 19.7461 -1.48036 -6.00008
          CHANNELS 6 Xposition Yposition Zposition Zrotation Xrotation Yrotation
          JOINT RightArm
          {
            OFFSET 11.2841 0 0
            CHANNELS 6 Xposition Yposition Zposition Zrotation Xrotation Yrotation
            JOINT RightForeArm
            {
              OFFSET 33.0001 1.6e-05 0
              CHANNELS 6 Xposition Yposition Zposition Zrotation Xrotation Yrotation
              JOINT RightHand
              {
                OFFSET 25.1998 0.000123 0.000432
                CHANNELS 6 Xposition Yposition Zposition Zrotation Xrotation Yrotation
                End Site
                {
                  OFFSET 0 0 0
                }
              }
            }
          }
        }
      }
    }
  }
}
MOTION
Frames:	10
Frame Time:	0.0333333
-21.3476 89.1116 -142.648 -86.9676 -0.63804 -176.871 0.103456 1.85784 10.5485 4.46105 -5.77515 177.36 43.5 -4.2e-05 1e-05 -9.38057 -9.22843 -1.45378 42.3722 1.9e-05 -2.84217e-14 75.7633 -8.52643 7.73227 17.3 3.55271e-15 3e-06 21.4546 -1e-06 0.003093 0.103456 1.85782 -10.5485 10.8592 10.3853 172.467 43.5 -2.7e-05 4e-06 -1.677 14.4495 3.85282 42.3723 0 1e-05 83.6585 24.1774 -17.5747 17.3 -6e-06 1.7e-05 21.4546 -1.9e-05 -0.003116 6.90197 -2.60373 -3e-06 6.92979 0.353911 -0.367555 12.5881 1e-05 8e-06 3.86699 0.706635 -0.774132 12.3432 -1.8e-05 -5e-06 3.54031 0.712936 -0.809505 25.8329 2.3e-05 7e-06 11.1655 2.38375 -8.2253 11.7666 -8e-06 -6e-06 -25.9022 0.850339 10.2121 19.7459 -1.48035 6.0001 -178.851 4.64808 -99.0153 11.2841 1.8e-05 -2e-05 9.02379 -26.1748 24.7549 33 -1.3e-05 1.9e-05 -12.0182 13.4365 -24.1558 25.2 3.2e-05 1.1e-05 2.53074 35.9385 -1.663 19.7461 -1.48036 -6.00008 -173.243 -9.71459 88.6459 11.2841 7.10543e-15 -1e-06 16.8138 19.3793 -14.6972 33.0001 1.6e-05 -1e-06 -22.1289 1.85599 23.2417 25.1998 0.000123 0.000432 4.47407 -13.6849 6.01216 
-21.3476 89.1126 -142.648 -86.9666 -0.657648 -176.871 0.103456 1.85784 10.5485 4.4308 -5.76526 177.36 43.5 -4.2e-05 1e-05 -9.44172 -9.21596 -1.46289 42.3722 1.9e-05 -2.84217e-14 75.7648 -8.54049 7.72968 17.3 0 3e-06 21.4546 -1e-06 0.003093 0.103456 1.85782 -10.5485 10.8729 10.3612 172.454 43.5 -2.7e-05 4e-06 -1.64423 14.4492 3.8714 42.3723 0 1e-05 83.6395 24.1774 -17.5747 17.3 -6e-06 1.7e-05 21.4546 -1.9e-05 -0.003116 6.90197 -2.60373 -3e-06 6.92988 0.368503 -0.367556 12.5881 1e-05 8e-06 3.86739 0.735949 -0.774137 12.3432 -1.8e-05 -5e-06 3.54072 0.742345 -0.80951 25.8329 2.3e-05 7e-06 11.1711 2.50805 -8.30087 11.7666 -8e-06 -6e-06 -25.9893 1.03562 10.244 19.7459 -1.48035 6.0001 -178.809 4.74781 -99.0342 11.2841 1.8e-05 -2e-05 9.01565 -26.1923 24.7338 33 -1.3e-05 1.9e-05 -11.9651 13.4346 -24.1746 25.2 3.2e-05 1.1e-05 2.53184 35.9402 -1.66243 19.7461 -1.48036 -6.00008 -173.23 -9.67811 88.6749 11.2841 -3.55271e-15 -1e-06 16.8725 19.3898 -14.7354 33.0001 1.6e-05 -1e-06 -22.1167 1.85603 23.2387 25.1998 0.000123 0.000432 4.4975 -13.7054 6.03476 
-21.3469 89.1129 -142.644 -86.9665 -0.659004 -176.871 0.103456 1.85784 10.5485 4.45044 -5.75964 177.36 43.5 -4.2e-05 1e-05 -9.4321 -9.20734 -1.46197 42.3722 1.9e-05 2.84217e-14 75.7654 -8.57109 7.70681 17.3 0 3e-06 21.4546 -1e-06 0.003093 0.103456 1.85782 -10.5485 10.8866 10.3464 172.444 43.5 -2.7e-05 4e-06 -1.6084 14.449 3.88212 42.3723 -7.10543e-15 1e-05 83.6142 24.1781 -17.5686 17.3 -6e-06 1.7e-05 21.4546 -1.9e-05 -0.003116 6.90197 -2.60373 -3e-06 6.9299 0.371939 -0.367556 12.5881 1e-05 8e-06 3.85806 0.742883 -0.774138 12.3432 -1.8e-05 -5e-06 3.53128 0.749177 -0.809511 25.8329 2.3e-05 7e-06 11.1849 2.552 -8.32377 11.7666 -8e-06 -6e-06 -26.0131 1.08803 10.2603 19.7459 -1.48035 6.0001 -178.832 4.76198 -99.053 11.2841 1.8e-05 -2e-05 9.00332 -26.2384 24.7002 33 -1.3e-05 1.9e-05 -11.9304 13.4344 -24.176 25.2 3.2e-05 1.1e-05 2.37656 35.923 -1.61238 19.7461 -1.48036 -6.00008 -173.229 -9.65727 88.6836 11.2841 0 -1e-06 16.8855 19.3857 -14.7296 33.0001 1.6e-05 -1e-06 -22.1117 1.86292 23.2236 25.1998 0.000123 0.000432 4.47899 -13.7049 6.0388 
-21.3495 89.113 -142.634 -86.9627 -0.66088 -176.871 0.103456 1.85784 10.5485 4.41368 -5.75977 177.36 43.5 -4.2e-05 1e-05 -9.46651 -9.20388 -1.46241 42.3722 1.9e-05 0 75.7681 -8.59637 7.70181 17.3 -3.55271e-15 3e-06 21.4546 -1e-06 0.003093 0.103456 1.85782 -10.5485 10.8855 10.3389 172.442 43.5 -2.7e-05 4e-06 -1.61007 14.449 3.88526 42.3723 0 1e-05 83.6083 24.1788 -17.5629 17.3 -6e-06 1.7e-05 21.4546 -1.9e-05 -0.003116 6.90197 -2.60373 -3e-06 6.92991 0.37308 -0.367556 12.5881 1e-05 8e-06 3.84931 0.754093 -0.77414 12.3432 -1.8e-05 -5e-06 3.52238 0.760272 -0.809513 25.8329 2.3e-05 7e-06 11.1986 2.56638 -8.3336 11.7666 -8e-06 -6e-06 -26.0336 1.11119 10.2632 19.7459 -1.48035 6.0001 -178.847 4.75953 -99.0716 11.2841 1.8e-05 -2e-05 8.96853 -26.2528 24.6703 33 -1.3e-05 1.9e-05 -11.8887 13.4308 -24.1782 25.2 3.2e-05 1.1e-05 2.41689 35.9307 -1.63418 19.7461 -1.48036 -6.00008 -173.232 -9.63772 88.6867 11.2841 3.55271e-15 -1e-06 16.8918 19.3675 -14.6901 33.0001 1.6e-05 -1e-06 -22.1179 1.82938 23.2367 25.1998 0.000123 0.000432 4.45434 -13.7144 6.01485 
-21.3536 89.1128 -142.624 -86.9589 -0.663107 -176.871 0.103456 1.85784 10.5485 4.3848 -5.76301 177.366 43.5 -4.2e-05 1e-05 -9.5036 -9.20223 -1.46349 42.3722 1.9e-05 0 75.7668 -8.59663 7.70456 17.3 0 3e-06 21.4546 -1e-06 0.003093 0.103456 1.85782 -10.5485 10.878 10.3322 172.449 43.5 -2.7e-05 4e-06 -1.60904 14.449 3.88527 42.3723 0 1e-05 83.6047 24.1794 -17.5578 17.3 -6e-06 1.7e-05 21.4546 -1.9e-05 -0.003116 6.90197 -2.60373 -3e-06 6.92991 0.37316 -0.367556 12.5881 1e-05 8e-06 3.8444 0.753926 -0.77414 12.3432 -1.8e-05 -5e-06 3.51753 0.760054 -0.809513 25.8329 2.3e-05 7e-06 11.2075 2.53751 -8.32211 11.7666 -8e-06 -6e-06 -26.0652 1.08062 10.2449 19.7459 -1.48035 6.0001 -178.828 4.75979 -99.1035 11.2841 1.8e-05 -2e-05 9.04107 -26.2632 24.7246 33 -1.3e-05 1.9e-05 -11.8858 13.4123 -24.1724 25.2 3.2e-05 1.1e-05 2.4223 35.9118 -1.61926 19.7461 -1.48036 -6.00008 -173.251 -9.65336 88.7123 11.2841 0 -1e-06 16.9134 19.4031 -14.6695 33.0001 1.6e-05 -1e-06 -22.103 1.83207 23.239 25.1998 0.000123 0.000432 4.4448 -13.7208 6.03348 
-21.3575 89.1123 -142.612 -86.9551 -0.664611 -176.871 0.103456 1.85784 10.5485 4.45459 -5.76671 177.372 43.5 -4.2e-05 1e-05 -9.42579 -9.20122 -1.46505 42.3722 1.9e-05 2.84217e-14 75.7739 -8.60218 7.71119 17.3 -3.55271e-15 3e-06 21.4546 -1e-06 0.003093 0.103456 1.85782 -10.5485 10.8691 10.3223 172.459 43.5 -2.7e-05 4e-06 -1.60939 14.4485 3.88554 42.3723 0 1e-05 83.5974 24.1763 -17.5449 17.3 -6e-06 1.7e-05 21.4546 -1.9e-05 -0.003116 6.90197 -2.60373 -3e-06 6.92991 0.373255 -0.367556 12.5881 1e-05 8e-06 3.8509 0.749316 -0.774139 12.3432 -1.8e-05 -5e-06 3.52407 0.755418 -0.809512 25.8329 2.3e-05 7e-06 11.2005 2.51686 -8.31234 11.7666 -8e-06 -6e-06 -26.0754 1.0583 10.2392 19.7459 -1.48035 6.0001 -178.829 4.75485 -99.1002 11.2841 1.8e-05 -2e-05 9.00555 -26.2337 24.6721 33 -1.3e-05 1.9e-05 -11.8633 13.391 -24.1518 25.2 3.2e-05 1.1e-05 2.43237 35.8972 -1.58691 19.7461 -1.48036 -6.00008 -173.247 -9.65415 88.715 11.2841 3.55271e-15 -1e-06 16.9081 19.3806 -14.6588 33.0001 1.6e-05 -1e-06 -22.1218 1.83849 23.2458 25.1998 0.000123 0.000432 4.44142 -13.7124 6.02358 
-21.359 89.1134 -142.601 -86.9513 -0.664322 -176.871 0.103456 1.85784 10.5485 4.44718 -5.7684 177.386 43.5 -4.2e-05 1e-05 -9.43359 -9.19933 -1.4669 42.3722 1.9e-05 -2.84217e-14 75.7874 -8.62018 7.72113 17.3 3.55271e-15 3e-06 21.4546 -1e-06 0.003093 0.103456 1.85782 -10.5485 10.7748 10.3136 172.496 43.5 -2.7e-05 4e-06 -1.75609 14.4243 3.8735 42.3723 0 1e-05 83.6677 24.1716 -17.534 17.3 -6e-06 1.7e-05 21.4546 -1.9e-05 -0.003116 6.90197 -2.60373 -3e-06 6.92992 0.374441 -0.367556 12.5881 1e-05 8e-06 3.84163 0.747736 -0.774139 12.3432 -1.8e-05 -5e-06 3.51478 0.75379 -0.809512 25.8329 2.3e-05 7e-06 11.2115 2.49688 -8.3056 11.7666 -8e-06 -6e-06 -26.0714 1.04109 10.2318 19.7459 -1.48035 6.0001 -178.847 4.78006 -99.1158 11.2841 1.8e-05 -2e-05 9.07238 -26.2942 24.695 33 -1.3e-05 1.9e-05 -11.8515 13.3878 -24.1731 25.2 3.2e-05 1.1e-05 2.42564 35.89 -1.58034 19.7461 -1.48036 -6.00008 -173.233 -9.6697 88.7431 11.2841 0 -1e-06 16.9178 19.4372 -14.6965 33.0001 1.6e-05 -1e-06 -22.0803 1.85466 23.2335 25.1998 0.000123 0.000432 4.42794 -13.7039 6.01798 
-21.3637 89.1143 -142.59 -86.9478 -0.659904 -176.871 0.103456 1.85784 10.5485 4.4291 -5.7654 177.393 43.5 -4.2e-05 1e-05 -9.45861 -9.19514 -1.46885 42.3722 1.9e-05 0 75.7879 -8.6241 7.72741 17.3 -3.55271e-15 3e-06 21.4546 -1e-06 0.003093 0.103456 1.85782 -10.5485 10.8401 10.2921 172.478 43.5 -2.7e-05 4e-06 -1.64584 14.4258 3.90702 42.3723 0 1e-05 83.5945 24.127 -17.526 17.3 -6e-06 1.7e-05 21.4546 -1.9e-05 -0.003116 6.90197 -2.60373 -3e-06 6.93484 0.377995 -0.367556 12.5881 1e-05 8e-06 3.85145 0.754709 -0.778022 12.3432 -1.8e-05 -5e-06 3.52453 0.76065 -0.813798 25.8329 2.3e-05 7e-06 11.1974 2.48746 -8.30001 11.7666 -8e-06 -6e-06 -26.0641 1.03955 10.2177 19.7459 -1.48035 6.0001 -178.824 4.77844 -99.1 11.2841 1.8e-05 -2e-05 9.05721 -26.2635 24.6957 33 -1.3e-05 1.9e-05 -11.9099 13.4218 -24.1862 25.2 3.2e-05 1.1e-05 2.4125 35.9078 -1.5836 19.7461 -1.48036 -6.00008 -173.23 -9.68349 88.7266 11.2841 3.55271e-15 -1e-06 16.8915 19.4219 -14.6933 33.0001 1.6e-05 -1e-06 -22.0324 1.84422 23.2094 25.1998 0.000123 0.000432 4.43549 -13.7018 6.00471 
-21.369 89.1134 -142.646 -86.8991 -0.563908 -176.884 0.103456 1.85784 10.5485 4.50628 -5.75165 177.344 43.5 -4.2e-05 1e-05 -9.44077 -9.29031 -1.47115 42.3722 1.9e-05 0 75.8142 -8.54913 7.79722 17.3 -3.55271e-15 3e-06 21.4546 -1e-06 0.003093 0.103456 1.85782 -10.5485 10.9139 10.2866 172.417 43.5 -2.7e-05 4e-06 -1.61603 14.3516 3.91686 42.3723 0 1e-05 83.5799 24.2232 -17.4462 17.3 -6e-06 1.7e-05 21.4546 -1.9e-05 -0.003116 6.90197 -2.60373 -3e-06 6.94823 0.398711 -0.367557 12.5881 1e-05 8e-06 3.87757 0.79823 -0.751485 12.3432 -1.8e-05 -5e-06 3.54995 0.806153 -0.789959 25.8329 2.3e-05 7e-06 11.1894 2.41321 -8.27289 11.7666 -8e-06 -6e-06 -26.0139 1.01635 10.1239 19.7459 -1.48035 6.0001 -178.807 4.7847 -99.0564 11.2841 1.8e-05 -2e-05 8.9932 -26.2452 24.7517 33 -1.3e-05 1.9e-05 -11.8797 13.4974 -24.1933 25.2 3.2e-05 1.1e-05 2.41748 35.9527 -1.60061 19.7461 -1.48036 -6.00008 -173.222 -9.70015 88.7765 11.2841 0 -1e-06 16.8833 19.4416 -14.6726 33.0001 1.6e-05 -1e-06 -21.9727 1.84036 23.1522 25.1998 0.000123 0.000432 4.43537 -13.712 6.01015 
-21.3728 89.1138 -142.63 -86.8968 -0.570063 -176.883 0.103456 1.85784 10.5485 4.51542 -5.75277 177.352 43.5 -4.2e-05 1e-05 -9.42798 -9.28507 -1.4728 42.3722 1.9e-05 0 75.8024 -8.54915 7.79427 17.3 0 3e-06 21.4546 -1e-06 0.003093 0.103456 1.85782 -10.5485 10.9303 10.2849 172.415 43.5 -2.7e-05 4e-06 -1.58041 14.3568 3.9285 42.3723 7.10543e-15 1e-05 83.56 24.2053 -17.4446 17.3 -6e-06 1.7e-05 21.4546 -1.9e-05 -0.003116 6.90197 -2.60373 -3e-06 6.94748 0.40116 -0.367557 12.5881 1e-05 8e-06 3.87302 0.802826 -0.750477 12.3432 -1.8e-05 -5e-06 3.54532 0.810737 -0.789237 25.8329 2.3e-05 7e-06 11.1944 2.43052 -8.28659 11.7666 -8e-06 -6e-06 -25.9276 1.04502 10.1187 19.7459 -1.48035 6.0001 -178.784 4.81055 -99.0484 11.2841 1.8e-05 -2e-05 8.97561 -26.252 24.7995 33 -1.3e-05 1.9e-05 -11.9035 13.5028 -24.1904 25.2 3.2e-05 1.1e-05 2.42274 35.9518 -1.59791 19.7461 -1.48036 -6.00008 -173.243 -9.7369 88.7674 11.2841 0 -1e-06 16.8897 19.5144 -14.7261 33.0001 1.6e-05 -1e-06 -21.9566 1.88005 23.1653 25.1998 0.000123 0.000432 4.48185 -13.6963 6.00714 
